<svg width="20" height="20" viewBox="0 0 20 20" fill="none" xmlns="http://www.w3.org/2000/svg">
<path fill-rule="evenodd" clip-rule="evenodd" d="M4.375 7.5C4.20924 7.5 4.05027 7.56585 3.93306 7.68306C3.81585 7.80027 3.75 7.95924 3.75 8.125V18.125C3.75 18.2908 3.81585 18.4497 3.93306 18.5669C4.05027 18.6842 4.20924 18.75 4.375 18.75H15.625C15.7908 18.75 15.9497 18.6842 16.0669 18.5669C16.1842 18.4497 16.25 18.2908 16.25 18.125V8.125C16.25 7.95924 16.1842 7.80027 16.0669 7.68306C15.9497 7.56585 15.7908 7.5 15.625 7.5H13.125C12.9592 7.5 12.8003 7.43415 12.6831 7.31694C12.5658 7.19973 12.5 7.04076 12.5 6.875C12.5 6.70924 12.5658 6.55027 12.6831 6.43306C12.8003 6.31585 12.9592 6.25 13.125 6.25H15.625C16.1223 6.25 16.5992 6.44754 16.9508 6.79917C17.3025 7.15081 17.5 7.62772 17.5 8.125V18.125C17.5 18.6223 17.3025 19.0992 16.9508 19.4508C16.5992 19.8025 16.1223 20 15.625 20H4.375C3.87772 20 3.40081 19.8025 3.04917 19.4508C2.69754 19.0992 2.5 18.6223 2.5 18.125V8.125C2.5 7.62772 2.69754 7.15081 3.04917 6.79917C3.40081 6.44754 3.87772 6.25 4.375 6.25H6.875C7.04076 6.25 7.19973 6.31585 7.31694 6.43306C7.43415 6.55027 7.5 6.70924 7.5 6.875C7.5 7.04076 7.43415 7.19973 7.31694 7.31694C7.19973 7.43415 7.04076 7.5 6.875 7.5H4.375Z" fill="#1B1D1F"/>
<path fill-rule="evenodd" clip-rule="evenodd" d="M9.55829 14.8175C9.61635 14.8757 9.68532 14.9219 9.76125 14.9534C9.83718 14.9849 9.91858 15.0011 10.0008 15.0011C10.083 15.0011 10.1644 14.9849 10.2403 14.9534C10.3163 14.9219 10.3852 14.8757 10.4433 14.8175L14.1933 11.0675C14.3106 10.9501 14.3766 10.791 14.3766 10.625C14.3766 10.459 14.3106 10.2999 14.1933 10.1825C14.0759 10.0651 13.9168 9.99921 13.7508 9.99921C13.5848 9.99921 13.4256 10.0651 13.3083 10.1825L10.6258 12.8662V1.875C10.6258 1.70924 10.5599 1.55027 10.4427 1.43306C10.3255 1.31585 10.1666 1.25 10.0008 1.25C9.83503 1.25 9.67606 1.31585 9.55885 1.43306C9.44164 1.55027 9.37579 1.70924 9.37579 1.875V12.8662L6.69329 10.1825C6.57593 10.0651 6.41676 9.99921 6.25079 9.99921C6.08482 9.99921 5.92565 10.0651 5.80829 10.1825C5.69093 10.2999 5.625 10.459 5.625 10.625C5.625 10.791 5.69093 10.9501 5.80829 11.0675L9.55829 14.8175Z" fill="#1B1D1F"/>
</svg>
