<svg width="20" height="10" viewBox="0 0 20 10" fill="none" xmlns="http://www.w3.org/2000/svg">
<mask id="path-1-inside-1_1362:10828" fill="white">
<path fill-rule="evenodd" clip-rule="evenodd" d="M0.225964 0.209794C0.297411 0.143292 0.382286 0.0905301 0.475729 0.0545301C0.569172 0.0185301 0.669347 0 0.770516 0C0.871684 0 0.971859 0.0185301 1.0653 0.0545301C1.15875 0.0905301 1.24362 0.143292 1.31507 0.209794L10.0002 8.27488L18.6853 0.209794C18.7568 0.1434 18.8417 0.0907329 18.9352 0.0548005C19.0286 0.0188681 19.1288 0.000373881 19.2299 0.000373881C19.331 0.000373881 19.4312 0.0188681 19.5246 0.0548005C19.618 0.0907329 19.7029 0.1434 19.7744 0.209794C19.846 0.276189 19.9027 0.35501 19.9414 0.441759C19.9801 0.528507 20 0.621484 20 0.71538C20 0.809276 19.9801 0.902252 19.9414 0.989001C19.9027 1.07575 19.846 1.15457 19.7744 1.22097L10.5448 9.79021C10.4733 9.85671 10.3884 9.90947 10.295 9.94547C10.2015 9.98147 10.1014 10 10.0002 10C9.89903 10 9.79886 9.98147 9.70542 9.94547C9.61197 9.90947 9.5271 9.85671 9.45565 9.79021L0.225964 1.22097C0.154337 1.15463 0.0975082 1.07583 0.0587336 0.989072C0.019959 0.902316 0 0.809309 0 0.71538C0 0.62145 0.019959 0.528444 0.0587336 0.441687C0.0975082 0.35493 0.154337 0.276128 0.225964 0.209794Z"/>
</mask>
<path fill-rule="evenodd" clip-rule="evenodd" d="M0.225964 0.209794C0.297411 0.143292 0.382286 0.0905301 0.475729 0.0545301C0.569172 0.0185301 0.669347 0 0.770516 0C0.871684 0 0.971859 0.0185301 1.0653 0.0545301C1.15875 0.0905301 1.24362 0.143292 1.31507 0.209794L10.0002 8.27488L18.6853 0.209794C18.7568 0.1434 18.8417 0.0907329 18.9352 0.0548005C19.0286 0.0188681 19.1288 0.000373881 19.2299 0.000373881C19.331 0.000373881 19.4312 0.0188681 19.5246 0.0548005C19.618 0.0907329 19.7029 0.1434 19.7744 0.209794C19.846 0.276189 19.9027 0.35501 19.9414 0.441759C19.9801 0.528507 20 0.621484 20 0.71538C20 0.809276 19.9801 0.902252 19.9414 0.989001C19.9027 1.07575 19.846 1.15457 19.7744 1.22097L10.5448 9.79021C10.4733 9.85671 10.3884 9.90947 10.295 9.94547C10.2015 9.98147 10.1014 10 10.0002 10C9.89903 10 9.79886 9.98147 9.70542 9.94547C9.61197 9.90947 9.5271 9.85671 9.45565 9.79021L0.225964 1.22097C0.154337 1.15463 0.0975082 1.07583 0.0587336 0.989072C0.019959 0.902316 0 0.809309 0 0.71538C0 0.62145 0.019959 0.528444 0.0587336 0.441687C0.0975082 0.35493 0.154337 0.276128 0.225964 0.209794Z" fill="#19DE66"/>
<path d="M1.31507 0.209794L-12.3114 14.8494L-12.3028 14.8574L-12.2942 14.8654L1.31507 0.209794ZM10.0002 8.27488L-3.60911 22.9305L10.0002 35.5682L23.6095 22.9305L10.0002 8.27488ZM18.6853 0.209794L5.07732 -14.447L5.07603 -14.4458L18.6853 0.209794ZM20 0.71538H-1.55972e-07H20ZM19.7744 1.22097L33.3825 15.8778L19.7744 1.22097ZM10.5448 9.79021L-3.06326 -4.8666L-3.0725 -4.85802L-3.08173 -4.84943L10.5448 9.79021ZM9.45565 9.79021L23.0821 -4.84943L23.0729 -4.85802L23.0637 -4.8666L9.45565 9.79021ZM0.225964 1.22097L13.834 -13.4358L13.8247 -13.4444L13.8155 -13.453L0.225964 1.22097ZM13.8524 14.8494C12.0061 16.568 9.8919 17.8598 7.66581 18.7174L-6.71435 -18.6083C-9.12733 -17.6787 -11.4112 -16.2815 -13.4005 -14.4298L13.8524 14.8494ZM7.66581 18.7174C5.44101 19.5745 3.10188 20 0.770516 20V-20C-1.76319 -20 -4.30266 -19.5375 -6.71435 -18.6083L7.66581 18.7174ZM0.770516 20C-1.56085 20 -3.89997 19.5745 -6.12478 18.7174L8.25539 -18.6083C5.84369 -19.5375 3.30422 -20 0.770516 -20V20ZM-6.12478 18.7174C-8.35087 17.8598 -10.465 16.568 -12.3114 14.8494L14.9415 -14.4298C12.9523 -16.2815 10.6684 -17.6787 8.25539 -18.6083L-6.12478 18.7174ZM-12.2942 14.8654L-3.60911 22.9305L23.6095 -6.38072L14.9244 -14.4458L-12.2942 14.8654ZM23.6095 22.9305L32.2946 14.8654L5.07603 -14.4458L-3.60911 -6.38073L23.6095 22.9305ZM32.2934 14.8666C30.4483 16.5797 28.3368 17.8672 26.1141 18.722L11.7563 -18.6124C9.34665 -17.6857 7.06544 -16.2929 5.07732 -14.447L32.2934 14.8666ZM26.1141 18.722C23.8927 19.5763 21.5575 20.0004 19.2299 20.0004V-19.9996C16.7 -19.9996 14.1645 -19.5385 11.7563 -18.6124L26.1141 18.722ZM19.2299 20.0004C16.9023 20.0004 14.5671 19.5763 12.3457 18.722L26.7035 -18.6124C24.2952 -19.5385 21.7597 -19.9996 19.2299 -19.9996V20.0004ZM12.3457 18.722C10.1229 17.8672 8.01152 16.5797 6.16643 14.8666L33.3825 -14.447C31.3943 -16.2929 29.1131 -17.6857 26.7035 -18.6124L12.3457 18.722ZM6.16643 14.8666C4.31829 13.1507 2.76615 11.0324 1.67664 8.59035L38.2061 -7.70683C37.0392 -10.3224 35.3736 -12.5983 33.3825 -14.447L6.16643 14.8666ZM1.67664 8.59035C0.58503 6.14353 -1.55972e-07 3.46281 -1.55972e-07 0.71538H40C40 -2.21984 39.3751 -5.08652 38.2061 -7.70683L1.67664 8.59035ZM-1.55972e-07 0.71538C-1.55972e-07 -2.03205 0.58503 -4.71277 1.67664 -7.15959L38.2061 9.13759C39.3751 6.51728 40 3.6506 40 0.71538H-1.55972e-07ZM1.67664 -7.15959C2.76615 -9.60167 4.31829 -11.7199 6.16643 -13.4358L33.3825 15.8778C35.3736 14.0291 37.0392 11.7532 38.2061 9.13759L1.67664 -7.15959ZM6.16643 -13.4358L-3.06326 -4.8666L24.1528 24.447L33.3825 15.8778L6.16643 -13.4358ZM-3.08173 -4.84943C-1.23525 -6.56813 0.878938 -7.85982 3.1049 -8.7174L17.4851 28.6083C19.8979 27.6788 22.1819 26.2815 24.1712 24.4298L-3.08173 -4.84943ZM3.1049 -8.7174C5.32961 -9.57449 7.66873 -10 10.0002 -10V30C12.534 30 15.0735 29.5374 17.4851 28.6083L3.1049 -8.7174ZM10.0002 -10C12.3317 -10 14.6708 -9.57449 16.8955 -8.7174L2.51533 28.6083C4.92693 29.5374 7.46639 30 10.0002 30V-10ZM16.8955 -8.7174C19.1215 -7.85982 21.2356 -6.56813 23.0821 -4.84943L-4.17083 24.4298C-2.18146 26.2815 0.10248 27.6788 2.51533 28.6083L16.8955 -8.7174ZM23.0637 -4.8666L13.834 -13.4358L-13.3821 15.8778L-4.15236 24.447L23.0637 -4.8666ZM13.8155 -13.453C15.6685 -11.7369 17.2252 -9.61688 18.318 -7.17166L-18.2006 9.1498C-17.0302 11.7685 -15.3598 14.0462 -13.3636 15.8949L13.8155 -13.453ZM18.318 -7.17166C19.413 -4.72177 20 -2.03677 20 0.71538H-20C-20 3.65539 -19.3731 6.5264 -18.2006 9.1498L18.318 -7.17166ZM20 0.71538C20 3.46753 19.413 6.15253 18.318 8.60242L-18.2006 -7.71905C-19.3731 -5.09564 -20 -2.22463 -20 0.71538H20ZM18.318 8.60242C17.2252 11.0476 15.6685 13.1677 13.8155 14.8837L-13.3636 -14.4642C-15.3598 -12.6154 -17.0302 -10.3378 -18.2006 -7.71905L18.318 8.60242Z" fill="#19DE66" mask="url(#path-1-inside-1_1362:10828)"/>
</svg>
