<svg width="20" height="10" viewBox="0 0 20 10" fill="none" xmlns="http://www.w3.org/2000/svg">
<mask id="path-1-inside-1_1362:10819" fill="white">
<path fill-rule="evenodd" clip-rule="evenodd" d="M0.225964 0.208818C0.297411 0.142316 0.382286 0.0895536 0.475729 0.0535536C0.569172 0.0175535 0.669347 -0.000976562 0.770516 -0.000976562C0.871684 -0.000976562 0.971859 0.0175535 1.0653 0.0535536C1.15875 0.0895536 1.24362 0.142316 1.31507 0.208818L10.0002 8.2739L18.6853 0.208818C18.7568 0.142423 18.8417 0.0897563 18.9352 0.0538239C19.0286 0.0178915 19.1288 -0.000602681 19.2299 -0.000602681C19.331 -0.000602681 19.4312 0.0178915 19.5246 0.0538239C19.618 0.0897563 19.7029 0.142423 19.7744 0.208818C19.846 0.275212 19.9027 0.354034 19.9414 0.440782C19.9801 0.52753 20 0.620507 20 0.714403C20 0.808299 19.9801 0.901276 19.9414 0.988024C19.9027 1.07477 19.846 1.15359 19.7744 1.21999L10.5448 9.78923C10.4733 9.85573 10.3884 9.90849 10.295 9.94449C10.2015 9.98049 10.1014 9.99902 10.0002 9.99902C9.89903 9.99902 9.79886 9.98049 9.70542 9.94449C9.61197 9.90849 9.5271 9.85573 9.45565 9.78923L0.225964 1.21999C0.154337 1.15365 0.0975082 1.07485 0.0587336 0.988096C0.019959 0.901339 0 0.808332 0 0.714403C0 0.620474 0.019959 0.527467 0.0587336 0.440711C0.0975082 0.353954 0.154337 0.275152 0.225964 0.208818Z"/>
</mask>
<path fill-rule="evenodd" clip-rule="evenodd" d="M0.225964 0.208818C0.297411 0.142316 0.382286 0.0895536 0.475729 0.0535536C0.569172 0.0175535 0.669347 -0.000976562 0.770516 -0.000976562C0.871684 -0.000976562 0.971859 0.0175535 1.0653 0.0535536C1.15875 0.0895536 1.24362 0.142316 1.31507 0.208818L10.0002 8.2739L18.6853 0.208818C18.7568 0.142423 18.8417 0.0897563 18.9352 0.0538239C19.0286 0.0178915 19.1288 -0.000602681 19.2299 -0.000602681C19.331 -0.000602681 19.4312 0.0178915 19.5246 0.0538239C19.618 0.0897563 19.7029 0.142423 19.7744 0.208818C19.846 0.275212 19.9027 0.354034 19.9414 0.440782C19.9801 0.52753 20 0.620507 20 0.714403C20 0.808299 19.9801 0.901276 19.9414 0.988024C19.9027 1.07477 19.846 1.15359 19.7744 1.21999L10.5448 9.78923C10.4733 9.85573 10.3884 9.90849 10.295 9.94449C10.2015 9.98049 10.1014 9.99902 10.0002 9.99902C9.89903 9.99902 9.79886 9.98049 9.70542 9.94449C9.61197 9.90849 9.5271 9.85573 9.45565 9.78923L0.225964 1.21999C0.154337 1.15365 0.0975082 1.07485 0.0587336 0.988096C0.019959 0.901339 0 0.808332 0 0.714403C0 0.620474 0.019959 0.527467 0.0587336 0.440711C0.0975082 0.353954 0.154337 0.275152 0.225964 0.208818Z" fill="#BABABA"/>
<path d="M1.31507 0.208818L-12.3114 14.8485L-12.3028 14.8564L-12.2942 14.8644L1.31507 0.208818ZM10.0002 8.2739L-3.60911 22.9295L10.0002 35.5672L23.6095 22.9295L10.0002 8.2739ZM18.6853 0.208818L5.07732 -14.448L5.07603 -14.4468L18.6853 0.208818ZM20 0.714403H-1.55972e-07H20ZM19.7744 1.21999L33.3825 15.8768L19.7744 1.21999ZM10.5448 9.78923L-3.06326 -4.86758L-3.0725 -4.859L-3.08173 -4.85041L10.5448 9.78923ZM9.45565 9.78923L23.0821 -4.85041L23.0729 -4.859L23.0637 -4.86758L9.45565 9.78923ZM0.225964 1.21999L13.834 -13.4368L13.8247 -13.4454L13.8155 -13.454L0.225964 1.21999ZM13.8524 14.8485C12.0061 16.5671 9.8919 17.8588 7.66581 18.7164L-6.71435 -18.6093C-9.12733 -17.6797 -11.4112 -16.2824 -13.4005 -14.4308L13.8524 14.8485ZM7.66581 18.7164C5.44101 19.5736 3.10188 19.999 0.770516 19.999V-20.001C-1.76319 -20.001 -4.30266 -19.5384 -6.71435 -18.6093L7.66581 18.7164ZM0.770516 19.999C-1.56085 19.999 -3.89997 19.5736 -6.12478 18.7164L8.25539 -18.6093C5.84369 -19.5385 3.30422 -20.001 0.770516 -20.001V19.999ZM-6.12478 18.7164C-8.35087 17.8588 -10.465 16.5671 -12.3114 14.8485L14.9415 -14.4308C12.9523 -16.2824 10.6684 -17.6797 8.25539 -18.6093L-6.12478 18.7164ZM-12.2942 14.8644L-3.60911 22.9295L23.6095 -6.3817L14.9244 -14.4468L-12.2942 14.8644ZM23.6095 22.9295L32.2946 14.8644L5.07603 -14.4468L-3.60911 -6.3817L23.6095 22.9295ZM32.2934 14.8656C30.4483 16.5787 28.3368 17.8662 26.1141 18.721L11.7563 -18.6133C9.34665 -17.6867 7.06544 -16.2938 5.07732 -14.448L32.2934 14.8656ZM26.1141 18.721C23.8927 19.5753 21.5575 19.9994 19.2299 19.9994V-20.0006C16.7 -20.0006 14.1645 -19.5395 11.7563 -18.6133L26.1141 18.721ZM19.2299 19.9994C16.9023 19.9994 14.5671 19.5753 12.3457 18.721L26.7035 -18.6133C24.2952 -19.5395 21.7597 -20.0006 19.2299 -20.0006V19.9994ZM12.3457 18.721C10.1229 17.8662 8.01152 16.5787 6.16643 14.8656L33.3825 -14.448C31.3943 -16.2938 29.1131 -17.6867 26.7035 -18.6133L12.3457 18.721ZM6.16643 14.8656C4.31829 13.1497 2.76615 11.0315 1.67664 8.58937L38.2061 -7.7078C37.0392 -10.3234 35.3736 -12.5993 33.3825 -14.448L6.16643 14.8656ZM1.67664 8.58937C0.58503 6.14256 -1.55972e-07 3.46183 -1.55972e-07 0.714403H40C40 -2.22082 39.3751 -5.0875 38.2061 -7.7078L1.67664 8.58937ZM-1.55972e-07 0.714403C-1.55972e-07 -2.03303 0.58503 -4.71375 1.67664 -7.16056L38.2061 9.13661C39.3751 6.5163 40 3.64962 40 0.714403H-1.55972e-07ZM1.67664 -7.16056C2.76615 -9.60265 4.31829 -11.7209 6.16643 -13.4368L33.3825 15.8768C35.3736 14.0281 37.0392 11.7522 38.2061 9.13661L1.67664 -7.16056ZM6.16643 -13.4368L-3.06326 -4.86758L24.1528 24.446L33.3825 15.8768L6.16643 -13.4368ZM-3.08173 -4.85041C-1.23525 -6.5691 0.878938 -7.8608 3.1049 -8.71838L17.4851 28.6074C19.8979 27.6778 22.1819 26.2806 24.1712 24.4289L-3.08173 -4.85041ZM3.1049 -8.71838C5.32961 -9.57547 7.66873 -10.001 10.0002 -10.001V29.999C12.534 29.999 15.0735 29.5365 17.4851 28.6074L3.1049 -8.71838ZM10.0002 -10.001C12.3317 -10.001 14.6708 -9.57547 16.8955 -8.71838L2.51533 28.6074C4.92693 29.5365 7.46639 29.999 10.0002 29.999V-10.001ZM16.8955 -8.71838C19.1215 -7.8608 21.2356 -6.5691 23.0821 -4.85041L-4.17083 24.4289C-2.18146 26.2806 0.10248 27.6778 2.51533 28.6074L16.8955 -8.71838ZM23.0637 -4.86758L13.834 -13.4368L-13.3821 15.8768L-4.15236 24.446L23.0637 -4.86758ZM13.8155 -13.454C15.6685 -11.7379 17.2252 -9.61785 18.318 -7.17264L-18.2006 9.14883C-17.0302 11.7676 -15.3598 14.0452 -13.3636 15.8939L13.8155 -13.454ZM18.318 -7.17264C19.413 -4.72274 20 -2.03775 20 0.714403H-20C-20 3.65441 -19.3731 6.52542 -18.2006 9.14883L18.318 -7.17264ZM20 0.714403C20 3.46655 19.413 6.15155 18.318 8.60144L-18.2006 -7.72002C-19.3731 -5.09661 -20 -2.22561 -20 0.714403H20ZM18.318 8.60144C17.2252 11.0467 15.6685 13.1667 13.8155 14.8828L-13.3636 -14.4651C-15.3598 -12.6164 -17.0302 -10.3388 -18.2006 -7.72002L18.318 8.60144Z" fill="#BABABA" mask="url(#path-1-inside-1_1362:10819)"/>
</svg>
