<svg width="122" height="32" viewBox="0 0 122 32" fill="none" xmlns="http://www.w3.org/2000/svg">
<g clip-path="url(#clip0_1362:10966)">
<path d="M58.5547 6.57031V20.7382H55.2227V6.57031H58.5547Z" fill="#3D3D3D"/>
<path d="M89.9399 6.57031V20.7382H86.6094V6.57031H89.9399Z" fill="#3D3D3D"/>
<path d="M95.6821 10.0547H92.3516V20.7364H95.6821V10.0547Z" fill="#3D3D3D"/>
<path d="M107.773 11.153C108.533 11.964 108.913 13.0774 108.913 14.4932V20.7342H105.601V14.934C105.601 14.2194 105.413 13.6641 105.036 13.2682C104.66 12.8722 104.153 12.6748 103.518 12.6757C102.881 12.6757 102.374 12.8732 101.999 13.2682C101.623 13.6632 101.435 14.2184 101.434 14.934V20.7342H98.1016V10.0525H101.434V11.4693C101.782 10.9866 102.252 10.6006 102.797 10.3487C103.399 10.0685 104.059 9.92794 104.725 9.93801C105.998 9.93801 107.014 10.343 107.773 11.153Z" fill="#3D3D3D"/>
<path d="M117.878 20.7333L114.567 16.254V20.7333H111.23V6.56543H114.561V14.3936L117.852 10.0487H121.963L117.442 15.4082L121.998 20.7305L117.878 20.7333Z" fill="#3D3D3D"/>
<path d="M52.8402 12.4841C52.4591 11.6998 51.8617 11.0364 51.1159 10.5693C50.3861 10.1218 49.5411 9.8894 48.681 9.89951C47.9841 9.88651 47.2949 10.0444 46.6757 10.3589C46.1249 10.6343 45.6604 11.0512 45.3315 11.5653V6.56934H42.0039V20.7373H45.3315V19.2417C45.6662 19.7486 46.1295 20.1609 46.6757 20.4382C47.2959 20.7489 47.985 20.9033 48.681 20.8875C49.5425 20.8976 50.3885 20.6615 51.1159 20.2077C51.8632 19.733 52.4604 19.0623 52.8402 18.2715C53.2577 17.3614 53.4736 16.3746 53.4736 15.3763C53.4736 14.3781 53.2577 13.3913 52.8402 12.4812V12.4841ZM49.7354 16.6157C49.5318 16.9608 49.2329 17.2422 48.8732 17.4271C48.497 17.6193 48.0784 17.7176 47.6543 17.7133C47.2325 17.7184 46.8161 17.62 46.4427 17.4271C46.0886 17.2426 45.7956 16.9626 45.598 16.62C45.3944 16.2429 45.2879 15.8225 45.2879 15.3957C45.2879 14.9688 45.3944 14.5484 45.598 14.1714C45.7988 13.8266 46.0953 13.5452 46.4529 13.3599C46.83 13.1745 47.2458 13.078 47.6674 13.078C48.0891 13.078 48.5049 13.1745 48.882 13.3599C49.2395 13.5452 49.536 13.8266 49.7368 14.1714C49.9495 14.5442 50.0571 14.9661 50.0485 15.3935C50.0579 15.8212 49.9497 16.2434 49.7354 16.6157Z" fill="#3D3D3D"/>
<path d="M80.8608 10.0526V11.5652C80.5336 11.0534 80.073 10.6369 79.5269 10.3588C78.9043 10.0422 78.2107 9.88427 77.5099 9.89943C76.6498 9.88973 75.8049 10.1221 75.075 10.5692C74.3296 11.0364 73.7327 11.6998 73.3522 12.484C72.9347 13.394 72.7188 14.3809 72.7188 15.3791C72.7188 16.3774 72.9347 17.3642 73.3522 18.2742C73.7318 19.0639 74.3286 19.7336 75.075 20.2077C75.8026 20.661 76.6484 20.8972 77.5099 20.8874C78.2088 20.9036 78.9001 20.7419 79.5167 20.418C80.0612 20.1301 80.5234 19.7123 80.8608 19.203V20.7143C80.8608 21.5729 80.6555 22.1912 80.2477 22.5819C79.84 22.9726 79.2851 23.1658 78.6007 23.1658C78.0958 23.1823 77.5963 23.0593 77.1589 22.8108C76.976 22.7068 76.8162 22.5677 76.6891 22.4017C76.562 22.2358 76.4702 22.0464 76.4191 21.8448H73.1279C73.1789 22.4409 73.3581 23.0196 73.6535 23.5426C73.949 24.0656 74.3541 24.521 74.842 24.8788C75.841 25.6258 77.1458 25.9993 78.7565 25.9993C79.9652 25.9993 80.9749 25.7632 81.7856 25.2909C82.5695 24.8481 83.2005 24.1847 83.5972 23.3861C84.0013 22.5527 84.2046 21.6389 84.1914 20.7157V10.054L80.8608 10.0526ZM80.5768 16.5097C80.3741 16.8551 80.0749 17.1361 79.7147 17.3197C79.3387 17.5125 78.9199 17.6108 78.4958 17.6059C78.0744 17.6115 77.6583 17.5131 77.2856 17.3197C76.9309 17.1363 76.6372 16.8566 76.4395 16.514C76.2281 16.1392 76.122 15.7159 76.1322 15.2875C76.1227 14.8601 76.2304 14.4379 76.4439 14.0654C76.6437 13.7204 76.9398 13.4388 77.2973 13.2539C77.6746 13.0685 78.0907 12.972 78.5125 12.972C78.9344 12.972 79.3505 13.0685 79.7278 13.2539C80.0853 13.4388 80.3814 13.7204 80.5812 14.0654C80.7872 14.4409 80.895 14.8609 80.895 15.2875C80.895 15.7142 80.7872 16.1341 80.5812 16.5097H80.5768Z" fill="#3D3D3D"/>
<path d="M68.8449 10.5722C67.95 10.1317 66.963 9.90234 65.9622 9.90234C64.9613 9.90234 63.9743 10.1317 63.0794 10.5722C62.2311 11.0107 61.5282 11.6786 61.0537 12.497C60.5688 13.3906 60.3143 14.3874 60.3125 15.4002C60.3107 16.4129 60.5617 17.4106 61.0435 18.3058C61.5129 19.1191 62.2092 19.7835 63.0503 20.2207C63.9363 20.6757 64.924 20.9059 65.9236 20.8904C66.929 20.9042 67.9224 20.6741 68.8158 20.2207C69.6677 19.7825 70.3749 19.1148 70.8546 18.2958C71.3674 17.414 71.6266 16.4118 71.6046 15.3964C71.6264 14.3823 71.3709 13.381 70.8648 12.497C70.3914 11.6797 69.6908 11.012 68.8449 10.5722ZM68.0265 16.6186C67.8229 16.9637 67.524 17.2451 67.1643 17.43C66.788 17.6222 66.3695 17.7205 65.9454 17.7162C65.5241 17.7212 65.1081 17.6228 64.7352 17.43C64.3807 17.2456 64.0872 16.9656 63.8891 16.6229C63.6859 16.2457 63.5796 15.8254 63.5796 15.3986C63.5796 14.9717 63.6859 14.5514 63.8891 14.1742C64.0893 13.8296 64.3854 13.5481 64.7425 13.3628C65.1198 13.1774 65.5359 13.0809 65.9578 13.0809C66.3797 13.0809 66.7957 13.1774 67.1731 13.3628C67.5302 13.5481 67.8263 13.8296 68.0265 14.1742C68.2398 14.5469 68.3474 14.969 68.3381 15.3964C68.3487 15.824 68.241 16.2464 68.0265 16.6186Z" fill="#3D3D3D"/>
<path d="M95.7324 5.89305C95.5686 5.61152 95.3267 5.38167 95.0348 5.23044C94.7259 5.07889 94.3854 5 94.0401 5C93.6949 5 93.3544 5.07889 93.0455 5.23044C92.7533 5.38128 92.5113 5.61122 92.3479 5.89305C92.181 6.20149 92.0938 6.54548 92.0938 6.89482C92.0938 7.24415 92.181 7.58815 92.3479 7.89659C92.5103 8.1768 92.7501 8.40604 93.0397 8.55776C93.3458 8.71397 93.6865 8.79314 94.0314 8.78817C94.3781 8.79261 94.7206 8.7135 95.029 8.55776C95.323 8.40627 95.5674 8.17605 95.7338 7.89373C95.9109 7.589 96.0004 7.24278 95.993 6.89195C95.9985 6.54208 95.9085 6.19717 95.7324 5.89305Z" fill="#3D3D3D"/>
</g>
<rect width="32" height="32" rx="4" fill="#19DE66"/>
<g clip-path="url(#clip1_1362:10966)">
<path d="M24.2724 15.9551C24.7528 15.0007 25.0026 13.9469 25.0019 12.8785C25.0044 11.8132 24.758 10.7621 24.2825 9.8089C24.1718 9.58712 24.049 9.37158 23.9147 9.16327C23.4959 8.51295 22.9713 7.93718 22.3628 7.45976C21.1553 6.51512 19.6653 6.00376 18.1323 6.00784H17.0209H8.2972C7.9542 6.00784 7.62524 6.14409 7.3827 6.38663C7.14017 6.62917 7.00391 6.95813 7.00391 7.30113C7.00391 7.64413 7.14017 7.97308 7.3827 8.21562C7.62524 8.45816 7.9542 8.59442 8.2972 8.59442H17.0209H18.1323C19.2528 8.5932 20.3288 9.03269 21.1281 9.818C21.36 10.0448 21.566 10.2965 21.7424 10.5687C22.0535 11.0516 22.2645 11.5921 22.3628 12.158C22.4024 12.3944 22.4223 12.6337 22.4224 12.8734C22.4219 13.12 22.3999 13.3661 22.3567 13.609C22.3567 13.609 22.3567 13.609 22.3567 13.616C21.1517 12.6732 19.6653 12.162 18.1353 12.1641H17.0239H10.8131C10.7726 12.1641 10.7332 12.1641 10.6938 12.1641C10.3221 12.1771 9.95434 12.2452 9.60261 12.3662C8.8519 12.6213 8.1996 13.1044 7.73679 13.7482C7.27397 14.392 7.02376 15.1642 7.02108 15.9571V15.9894C7.02153 16.5366 7.1419 17.077 7.37371 17.5727C7.70111 18.2773 8.23495 18.8658 8.90444 19.26L8.94789 19.2853L9.04892 19.3399C9.11157 19.3732 9.17522 19.4055 9.23989 19.4348H9.24595C9.29344 19.4571 9.34093 19.4773 9.38942 19.4965L9.43893 19.5167L9.5238 19.548L9.5915 19.5722C9.63697 19.5874 9.68244 19.6026 9.7279 19.6157H9.73295C9.77337 19.6278 9.8148 19.6389 9.85622 19.649L9.89664 19.6591C9.932 19.6682 9.96837 19.6773 10.0037 19.6844L10.0937 19.7026L10.1634 19.7157C10.2159 19.7248 10.2644 19.7329 10.322 19.74H10.3523H18.1383C18.2596 19.74 18.3798 19.74 18.5001 19.7299C18.7805 19.6608 19.0297 19.4997 19.2078 19.2725C19.386 19.0452 19.483 18.7648 19.4832 18.476C19.4832 18.1335 19.3471 17.8051 19.105 17.5629C18.8628 17.3208 18.5344 17.1847 18.1919 17.1847H17.0188H10.8191C10.7459 17.1847 10.6728 17.1779 10.6009 17.1645H10.5746C10.4619 17.1403 10.3533 17.0998 10.2523 17.0443L10.2139 17.0231L10.1755 16.9998C9.99919 16.8902 9.85365 16.7375 9.75255 16.5562C9.65145 16.3748 9.59812 16.1708 9.59756 15.9632C9.59836 15.6394 9.72732 15.3292 9.95623 15.1003C10.1851 14.8714 10.4954 14.7424 10.8191 14.7416H17.0188H18.1303C19.2518 14.7404 20.3289 15.1802 21.1291 15.9662C21.3609 16.1931 21.5666 16.4452 21.7424 16.7179C22.0505 17.1978 22.2597 17.7343 22.3577 18.2961L22.3638 18.3244C22.4034 18.5608 22.4234 18.8001 22.4234 19.0398C22.4242 19.8601 22.1888 20.6634 21.7454 21.3536C21.3582 21.9597 20.8244 22.4584 20.1934 22.8037C19.5624 23.1489 18.8546 23.3296 18.1353 23.3289H8.31033C7.96804 23.3289 7.63976 23.4648 7.39763 23.7067C7.15549 23.9486 7.01933 24.2768 7.01906 24.6191C7.01906 24.9616 7.15511 25.29 7.39727 25.5322C7.63943 25.7743 7.96787 25.9104 8.31033 25.9104H18.1303C19.2825 25.9105 20.4163 25.6208 21.4273 25.068C22.4383 24.5152 23.294 23.717 23.9157 22.7469C24.6282 21.6407 25.0064 20.3525 25.0049 19.0367C25.0065 17.9722 24.7591 16.9221 24.2825 15.9702C24.2787 15.9655 24.2753 15.9604 24.2724 15.9551Z" fill="#3D3D3D"/>
</g>
<defs>
<clipPath id="clip0_1362:10966">
<rect width="80" height="21" fill="white" transform="translate(42 5)"/>
</clipPath>
<clipPath id="clip1_1362:10966">
<rect width="18" height="19.9046" fill="white" transform="translate(7 6)"/>
</clipPath>
</defs>
</svg>
