<svg width="90" height="88" viewBox="0 0 90 88" fill="none" xmlns="http://www.w3.org/2000/svg">
<g opacity="0.8" clip-path="url(#clip0_1362:10764)">
<path d="M55.3379 1.56738V51.5778H88.2163" stroke="#1B1D1F" stroke-width="4" stroke-linecap="round" stroke-linejoin="round"/>
<path d="M25.3644 76.6781C24.9574 74.9352 23.9706 73.3809 22.5646 72.2678C21.1587 71.1548 19.4162 70.5486 17.6207 70.5479C15.8262 70.557 14.0867 71.1661 12.6808 72.2776C11.275 73.3891 10.2841 74.9387 9.86688 76.6781C9.72154 77.273 9.64756 77.883 9.64648 78.4952C9.64645 79.5413 9.85418 80.5771 10.2577 81.5428C10.6611 82.5085 11.2524 83.3851 11.9974 84.122C12.7424 84.8589 13.6264 85.4416 14.5984 85.8365C15.5703 86.2313 16.6111 86.4305 17.6607 86.4226C18.7103 86.4305 19.7511 86.2313 20.7231 85.8365C21.6951 85.4416 22.5791 84.8589 23.3241 84.122C24.069 83.3851 24.6603 82.5085 25.0638 81.5428C25.4673 80.5771 25.675 79.5413 25.675 78.4952C25.6445 77.8794 25.5402 77.2693 25.3644 76.6781V76.6781Z" stroke="#1B1D1F" stroke-width="4" stroke-linecap="round" stroke-linejoin="round"/>
<path d="M79.372 76.6781C78.9649 74.9352 77.9782 73.3809 76.5722 72.2678C75.1662 71.1548 73.4238 70.5486 71.6282 70.5479C69.8327 70.5486 68.0902 71.1548 66.6842 72.2678C65.2783 73.3809 64.2915 74.9352 63.8844 76.6781C63.7391 77.273 63.6651 77.883 63.6641 78.4952C63.664 79.5413 63.8717 80.5771 64.2752 81.5428C64.6787 82.5085 65.27 83.3851 66.015 84.122C66.76 84.8589 67.6439 85.4416 68.6159 85.8365C69.5879 86.2313 70.6287 86.4305 71.6783 86.4226C72.7237 86.4239 73.7591 86.2199 74.7253 85.8221C75.6915 85.4243 76.5695 84.8405 77.3092 84.1043C78.0489 83.368 78.6357 82.4937 79.036 81.5312C79.4364 80.5688 79.6425 79.5371 79.6425 78.4952C79.625 77.881 79.5342 77.271 79.372 76.6781V76.6781Z" stroke="#1B1D1F" stroke-width="4" stroke-linecap="round" stroke-linejoin="round"/>
<path d="M73.3398 27.7559C72.7502 27.1513 71.9511 26.7941 71.1059 26.7575H55.3378V1.55762H1.57227L1.7025 75.3303C1.71541 75.6905 1.86748 76.0319 2.12696 76.283C2.38644 76.5342 2.73327 76.6758 3.09498 76.6781H9.88705C10.3042 74.9386 11.2951 73.3891 12.701 72.2776C14.1069 71.1661 15.8463 70.557 17.6408 70.5478C19.4364 70.5486 21.1788 71.1548 22.5848 72.2678C23.9908 73.3808 24.9776 74.9352 25.3846 76.6781H63.883C64.2901 74.9352 65.2768 73.3808 66.6828 72.2678C68.0888 71.1548 69.8313 70.5486 71.6268 70.5478C73.4223 70.5486 75.1648 71.1548 76.5708 72.2678C77.9768 73.3808 78.9635 74.9352 79.3706 76.6781H87.0843C87.2649 76.6821 87.4444 76.6502 87.6126 76.5844C87.7807 76.5185 87.934 76.4201 88.0636 76.2947C88.1932 76.1693 88.2964 76.0194 88.3673 75.8538C88.4383 75.6882 88.4755 75.5103 88.4768 75.3303V40.1862C88.4768 39.4973 73.3398 27.7559 73.3398 27.7559Z" stroke="#1B1D1F" stroke-width="4" stroke-linecap="round" stroke-linejoin="round"/>
<path d="M23.8223 24.7507L31.6061 20.8569V44.08" stroke="#19DE66" stroke-width="4" stroke-linecap="round" stroke-linejoin="round"/>
</g>
<defs>
<clipPath id="clip0_1362:10764">
<rect width="90" height="88" fill="white"/>
</clipPath>
</defs>
</svg>
