<svg width="100" height="100" viewBox="0 0 100 100" fill="none" xmlns="http://www.w3.org/2000/svg">
<path d="M23.2686 11.5739C42.4825 11.5739 55.6769 1.62109 64.9352 1.62109C74.1936 1.62109 93.638 6.94332 93.638 49.535C93.638 92.1267 67.4797 98.3767 57.2964 98.3767C9.61024 98.3794 -10.7592 11.5739 23.2686 11.5739Z" fill="#EFEFEF"/>
<path d="M63.8041 21.5278C62.8597 19.8611 61.0819 18.75 59.0264 18.75H27.0819C24.0264 18.75 21.5264 21.25 21.5264 24.3056V67.3611C21.5264 68.1278 21.6847 68.8583 21.968 69.5222L21.5264 70.1389C22.4708 71.8056 24.2486 72.9167 26.3041 72.9167H58.2486C61.3041 72.9167 63.8041 70.4167 63.8041 67.3611V24.3056C63.8041 23.5389 63.6458 22.8083 63.3625 22.1444L63.8041 21.5278Z" fill="#2FDF84"/>
<path d="M78.4706 75.6868V35.4091C78.4706 32.3396 75.9845 29.8535 72.915 29.8535H40.9706C37.9011 29.8535 35.415 32.3396 35.415 35.4091V75.6868C35.415 78.7563 37.9011 81.2424 40.9706 81.2424H72.915C75.9845 81.2424 78.4706 78.7563 78.4706 75.6868Z" fill="#F3F3F1"/>
<path d="M27.7764 70.1389L28.218 69.5222C27.9347 68.8583 27.7764 68.1278 27.7764 67.3611V24.3056C27.7764 21.25 30.2764 18.75 33.3319 18.75H27.0819C24.0264 18.75 21.5264 21.25 21.5264 24.3056V67.3611C21.5264 68.1278 21.6847 68.8583 21.968 69.5222L21.5264 70.1389C22.4708 71.8056 24.2486 72.9167 26.3041 72.9167H32.5541C30.4986 72.9167 28.7208 71.8056 27.7764 70.1389Z" fill="#00B871"/>
<path d="M41.665 75.6868V35.4091C41.665 32.3396 44.1511 29.8535 47.2206 29.8535H40.9706C37.9011 29.8535 35.415 32.3396 35.415 35.4091V75.6868C35.415 78.7563 37.9011 81.2424 40.9706 81.2424H47.2206C44.1511 81.2424 41.665 78.7563 41.665 75.6868Z" fill="#D5DBE1"/>
<path d="M46.5283 59.7266H67.3617V63.8933H46.5283V59.7266Z" fill="black"/>
<path d="M46.5283 70.8398H67.3617V75.0065H46.5283V70.8398Z" fill="black"/>
<path d="M46.5283 50H67.3617V54.1667H46.5283V50Z" fill="black"/>
<path d="M46.5283 38.8965H67.3617V43.0632H46.5283V38.8965Z" fill="black"/>
<path d="M29.1656 74.9935H27.0822C22.8684 74.9935 19.4434 71.5685 19.4434 67.3546V24.299C19.4434 20.0852 22.8684 16.6602 27.0822 16.6602H59.0267C61.7489 16.6602 64.2767 18.1268 65.6184 20.4935L66.6461 22.3046L63.0211 24.3602L61.9934 22.549C61.3822 21.4685 60.2711 20.8268 59.0267 20.8268H27.0822C25.1684 20.8268 23.61 22.3852 23.61 24.299V67.3546C23.61 69.2685 25.1684 70.8268 27.0822 70.8268H29.1656V74.9935Z" fill="black"/>
<path d="M72.9183 83.329H40.9739C36.76 83.329 33.335 79.904 33.335 75.6901V35.4123C33.335 31.1984 36.76 27.7734 40.9739 27.7734H72.9183C77.1322 27.7734 80.5572 31.1984 80.5572 35.4123V75.6901C80.5572 79.904 77.1322 83.329 72.9183 83.329ZM40.9739 31.9401C39.06 31.9401 37.5016 33.4984 37.5016 35.4123V75.6901C37.5016 77.604 39.06 79.1623 40.9739 79.1623H72.9183C74.8322 79.1623 76.3905 77.604 76.3905 75.6901V35.4123C76.3905 33.4984 74.8322 31.9401 72.9183 31.9401H40.9739Z" fill="black"/>
<path d="M88.8884 78.4798C86.5911 78.4798 84.7217 76.6104 84.7217 74.3132C84.7217 72.0159 86.5911 70.1465 88.8884 70.1465C91.1856 70.1465 93.055 72.0159 93.055 74.3132C93.055 76.6104 91.1856 78.4798 88.8884 78.4798ZM88.8884 72.9243C88.1217 72.9243 87.4995 73.5493 87.4995 74.3132C87.4995 75.077 88.1217 75.702 88.8884 75.702C89.655 75.702 90.2772 75.077 90.2772 74.3132C90.2772 73.5493 89.655 72.9243 88.8884 72.9243Z" fill="#A4AFC1"/>
<path d="M19.2725 12.0029L23.2008 8.07456L25.165 10.0387L21.2366 13.9671L19.2725 12.0029Z" fill="#A4AFC1"/>
<path d="M7.97852 23.292L11.9069 19.3636L13.8711 21.3278L9.9427 25.2562L7.97852 23.292Z" fill="#A4AFC1"/>
<path d="M8.47168 10.0391L10.4359 8.07488L14.3642 12.0032L12.4001 13.9674L8.47168 10.0391Z" fill="#A4AFC1"/>
</svg>
